<?xml version="1.0" encoding="utf-8"?>
<!-- Generator: Adobe Illustrator 28.3.0, SVG Export Plug-In . SVG Version: 6.00 Build 0)  -->
<svg version="1.1" id="Ebene_1" xmlns="http://www.w3.org/2000/svg" xmlns:xlink="http://www.w3.org/1999/xlink" x="0px" y="0px"
	 viewBox="0 0 403.57 435.57" style="enable-background:new 0 0 403.57 435.57;" xml:space="preserve">
<style type="text/css">
	<!-- .st0{fill:#FFFFFF;} -->
</style>
<g>
	<g>
		<path class="st0" d="M201.79,52.33c44.2,0,85.75,17.21,117,48.46c31.25,31.25,48.46,72.8,48.46,117c0,44.2-17.21,85.75-48.46,117
			c-31.25,31.25-72.8,48.46-117,48.46s-85.75-17.21-117-48.46c-31.25-31.25-48.46-72.8-48.46-117c0-44.2,17.21-85.75,48.46-117
			C116.04,69.54,157.59,52.33,201.79,52.33 M201.79,37.33c-99.66,0-180.46,80.79-180.46,180.46s80.79,180.46,180.46,180.46
			s180.46-80.79,180.46-180.46S301.45,37.33,201.79,37.33L201.79,37.33z"/>
	</g>
	<polygon class="st0" points="345.25,217.24 232.43,104.41 214.75,122.09 298.53,205.87 58.32,205.87 58.32,230.87 296.87,230.87 
		214.26,313.48 231.94,331.16 344.77,218.33 344.47,218.03 	"/>
</g>
</svg>
